<svg width="28" height="28" viewBox="0 0 28 28" fill="none" xmlns="http://www.w3.org/2000/svg">
<rect x="4.79349" y="8.10133" width="4.48" height="0.84" transform="rotate(-45 4.79349 8.10133)" fill="#101010"/>
<rect x="19.4447" y="22.7526" width="4.48" height="0.84" transform="rotate(-45 19.4447 22.7526)" fill="#101010"/>
<rect x="22.6126" y="8.69528" width="4.48" height="0.84" transform="rotate(-135 22.6126 8.69528)" fill="#101010"/>
<rect x="5.38745" y="19.5847" width="4.48" height="0.84" transform="rotate(45 5.38745 19.5847)" fill="#101010"/>
<rect x="24.78" y="11.9" width="4.48" height="0.84" transform="rotate(90 24.78 11.9)" fill="#101010"/>
<rect x="4.06001" y="11.9" width="4.48" height="0.84" transform="rotate(90 4.06001 11.9)" fill="#101010"/>
<rect x="16.24" y="24.92" width="4.48" height="0.839998" transform="rotate(-180 16.24 24.92)" fill="#101010"/>
<rect x="16.24" y="4.20002" width="4.48" height="0.84" transform="rotate(-180 16.24 4.20002)" fill="#101010"/>
<path d="M14.773 1.77778C14.773 2.25009 14.3985 2.62778 13.943 2.62778C13.4874 2.62778 13.113 2.25009 13.113 1.77778C13.113 1.30546 13.4874 0.927778 13.943 0.927778C14.3985 0.927778 14.773 1.30546 14.773 1.77778Z" fill="#F7FCE4" stroke="url(#paint0_linear_9_123)" stroke-width="0.3"/>
<ellipse cx="14" cy="14" rx="7.84" ry="7.84" fill="url(#paint1_linear_9_123)"/>
<defs>
<linearGradient id="paint0_linear_9_123" x1="13.943" y1="0.777778" x2="13.943" y2="2.77778" gradientUnits="userSpaceOnUse">
<stop stop-color="#4E4C4C"/>
<stop offset="1" stop-color="#838383"/>
</linearGradient>
<linearGradient id="paint1_linear_9_123" x1="14" y1="6.16001" x2="14" y2="21.84" gradientUnits="userSpaceOnUse">
<stop offset="0.213542" stop-color="#E7E7E7" stop-opacity="0.06"/>
<stop offset="0.822917" stop-color="#303030" stop-opacity="0.08"/>
</linearGradient>
</defs>
</svg>
