<svg width="76" height="14" viewBox="0 0 76 14" fill="none" xmlns="http://www.w3.org/2000/svg">
<path d="M52.4646 7.13994C53.7287 7.21952 54.0794 7.61818 54.3083 8.72144L54.3083 10.3029L57.912 10.3029L57.912 8.72144C57.4243 6.63449 56.6452 5.97004 54.3083 5.73417L47.5444 5.73417C44.6747 6.25655 44.0756 7.40054 44.03 10.3029L47.5444 10.3029L47.5444 8.72144C47.7162 7.73473 47.9869 7.30669 49.3016 7.13994L52.4646 7.13994Z" fill="#A19F9F"/>
<path d="M24.7957 6.48307C26.0788 6.52131 26.4347 6.71289 26.667 7.24306L26.7576 8.00305L28.2057 8.00305L29.6538 8.00305V7.82038C29.6538 7.82038 29.3183 5.80752 26.667 5.80752H19.8018C16.9056 5.80752 16.281 6.6083 16.2347 8.00305L19.8018 8.00305V7.24306C19.9761 6.76889 20.2509 6.5632 21.5853 6.48307L24.7957 6.48307Z" fill="#A19F9F"/>
<path d="M21.7637 9.58451C20.4807 9.54627 20.1247 9.35469 19.8924 8.82452L19.8018 8.00305L16.2347 8.00305L16.2347 8.82452C16.7297 9.82741 17.5205 10.1467 19.8924 10.2601L26.7576 10.2601C29.6704 10.009 29.6075 9.39781 29.6538 8.00305L28.2057 8.00305L26.7576 8.00305V8.82452C26.5833 9.29869 26.3085 9.50438 24.9741 9.58451H21.7637Z" fill="#A19F9F"/>
<path d="M19.8924 11.0815C20.1247 11.6117 20.4807 11.8033 21.7637 11.8415H24.9741C26.3085 11.7614 26.5833 11.5557 26.7576 11.0815L26.7576 10.2601L29.6538 8.00305C29.6075 9.39781 30.3247 12.5171 26.7576 12.5171H19.8924C16.5702 12.5171 16.2347 11.8461 16.2347 11.0815V10.9664H19.8924V11.0815Z" fill="#A19F9F"/>
<circle cx="8.09042" cy="5.50727" r="5.09593" transform="rotate(90 8.09042 5.50727)" fill="#32759B"/>
<path d="M0.160308 13.4945L0.160309 0.842506L1.03892 0.842506L1.03892 5.58699C2.09324 11.5615 7.36489 13.8459 11.9337 11.2101L12.4608 11.2101L12.4608 13.4945L0.160308 13.4945Z" fill="#A19F9F"/>
<path d="M32.4324 5.73418H43.3271L43.3271 6.78851H34.8925L34.541 7.13995L34.3653 7.49139H43.3271V8.54572H34.3653L34.541 8.89716L34.8925 9.24861H43.3271L43.3271 10.3029H32.4324C29.9723 9.42433 29.9723 6.43706 32.4324 5.73418Z" fill="#A19F9F"/>
<path d="M65.175 5.47205L66.5563 6.37527L67.9377 5.47205H71.9898L68.5824 7.69997L75.9497 12.5171H71.8977L66.5563 9.02468L61.215 12.5171H57.163L64.5303 7.69997L61.1229 5.47205H65.175Z" fill="#32759B"/>
<path d="M69.7335 4.29788H73.7856L75.5814 3.12371H71.5293L69.7335 4.29788Z" fill="#32759B"/>
<path d="M63.3792 4.29788L61.5834 3.12371H57.5313L59.3271 4.29788H63.3792Z" fill="#32759B"/>
</svg>
